<svg width="104" height="25" viewBox="0 0 104 25" fill="none" xmlns="http://www.w3.org/2000/svg">
<path d="M12.2275 8.89258L18.8027 0.5H24.4531L15.0605 12.5L22.8184 22.4102L24.5 24.5H18.8027L12.2275 16.1064L5.65234 24.5H0L9.40918 12.5L0 0.5H5.65234L12.2275 8.89258Z" fill="#62CFE8"/>
<path d="M46.5791 24.5H41.5439L38.6719 17.4834H32.6318L34 13.4414H37.0107L34.1338 6.43066L26.7666 24.5L27.1133 23.6484L23.9824 19.6553L32.0801 0.5H36.3838L46.5791 24.5Z" fill="#62CFE8"/>
<path d="M63.3656 1.35154V3.69038H51.7205V11.1747H62.8222V13.5135H51.7205V23.6485H48.848V1.35154H63.3656Z" fill="#62CFE8"/>
<path d="M80.8907 1.35154V3.69038H69.2455V11.1747H80.3473V13.5135H69.2455V21.3096H81.1236V23.6485H66.3731V1.35154H80.8907Z" fill="#62CFE8"/>
<path d="M85.0472 23.6485V1.35154H94.5186C98.7419 1.35154 100.854 3.13426 100.854 6.69968C100.854 9.59984 98.7885 11.7464 94.6583 13.1393L102.282 23.6485H98.4934L91.4287 13.6226V11.736C95.6727 11.0603 97.7947 9.42313 97.7947 6.82442C97.7947 4.76625 96.6147 3.73716 94.2546 3.73716H87.9196V23.6485H85.0472Z" fill="#62CFE8"/>
<path d="M62.8222 13.5135V11.1747H51.7205V3.69038H63.3656V1.35154H48.848V23.6485H51.7205V13.5135H62.8222ZM81.1236 21.3096H69.2455V13.5135H80.3473V11.1747H69.2455V3.69038H80.8907V1.35154H66.3731V23.6485H81.1236V21.3096ZM100.854 6.69968C100.854 3.13426 98.7419 1.35154 94.5186 1.35154V0.5C96.7285 0.5 98.544 0.963335 99.8155 2.03677C101.115 3.134 101.702 4.74321 101.702 6.69968C101.702 8.37755 101.095 9.84945 99.9147 11.0763C98.9562 12.0726 97.6386 12.8886 96.0046 13.5488L103.949 24.5H98.0548L90.5807 13.8935V11.0088L91.296 10.895C93.3541 10.5674 94.786 10.0209 95.6866 9.32604C96.547 8.66221 96.9468 7.84886 96.9468 6.82442C96.9468 5.96033 96.7045 5.45791 96.3536 5.15189C95.9799 4.82596 95.3309 4.5887 94.2546 4.5887H88.7676V24.5H84.1992V0.5H94.5186V1.35154H85.0472V23.6485H87.9196V3.73716H94.2546C96.6147 3.73716 97.7947 4.76625 97.7947 6.82442C97.7947 9.42313 95.6727 11.0603 91.4287 11.736V13.6226L98.4934 23.6485H102.282L94.6583 13.1393C98.7885 11.7464 100.854 9.59984 100.854 6.69968ZM64.2136 4.54193H52.5684V10.3231H63.6702V14.365H52.5684V24.5H48V0.5H64.2136V4.54193ZM81.7387 4.54193H70.0935V10.3231H81.1952V14.365H70.0935V20.4581H81.9716V24.5H65.5251V0.5H81.7387V4.54193Z" fill="#62CFE8"/>
</svg>
